<svg id="_x32_" xmlns="http://www.w3.org/2000/svg" width="105.712" height="24" viewBox="0 0 105.712 24">
  <g id="Group_1168" data-name="Group 1168" transform="translate(34.635 5.289)">
    <path id="Path_5355" data-name="Path 5355" d="M43.3,8.1h2.251V18.151H43.3Z" transform="translate(-43.3 -6.894)" fill="#c8c8c8"/>
    <path id="Path_5356" data-name="Path 5356" d="M52.3,18.211a10.251,10.251,0,0,1-1.608-.08A14.2,14.2,0,0,1,49,17.89V8.241a8.906,8.906,0,0,1,1.528-.161A10.252,10.252,0,0,1,52.055,8a12.044,12.044,0,0,1,1.769.161,3.444,3.444,0,0,1,1.367.482,1.886,1.886,0,0,1,.884.884,2.464,2.464,0,0,1,.322,1.367,2.26,2.26,0,0,1-1.126,1.93,2.376,2.376,0,0,1,1.286.965,2.643,2.643,0,0,1,.322,1.367,2.9,2.9,0,0,1-1.126,2.412A7.772,7.772,0,0,1,52.3,18.211ZM51.171,12.02H52.3a3.526,3.526,0,0,0,1.528-.241.924.924,0,0,0,.482-.884.924.924,0,0,0-.482-.884,2.966,2.966,0,0,0-1.367-.241H51.251V12.02Zm0,1.688v2.573a1.57,1.57,0,0,1,.563.08h.643a3.189,3.189,0,0,0,1.608-.322A1.159,1.159,0,0,0,54.628,15a.972.972,0,0,0-.482-.965,3.329,3.329,0,0,0-1.528-.322H51.171Z" transform="translate(-44.417 -6.874)" fill="#c8c8c8"/>
    <path id="Path_5357" data-name="Path 5357" d="M63.695,8.1a8.637,8.637,0,0,1,.563,1.206c.241.482.482.965.724,1.528l.724,1.688c.241.563.482,1.126.643,1.608.241-.482.4-1.045.643-1.608l.724-1.688c.241-.563.482-1.045.724-1.528s.4-.884.563-1.206h2.091c.08.643.161,1.447.241,2.251s.161,1.688.241,2.573.08,1.769.161,2.653.08,1.769.161,2.573H69.805c0-.965-.08-2.01-.08-3.216-.08-1.126-.161-2.332-.241-3.457-.161.4-.4.884-.563,1.367-.241.482-.4.965-.643,1.447a10.737,10.737,0,0,0-.563,1.447,7.841,7.841,0,0,1-.482,1.126H65.624c-.161-.322-.322-.724-.482-1.126-.161-.482-.4-.884-.643-1.447-.241-.482-.4-.965-.643-1.447s-.4-.965-.563-1.367c-.08,1.206-.161,2.332-.241,3.457s-.08,2.171-.08,3.216H60.8c0-.8.08-1.608.161-2.573.08-.884.08-1.769.161-2.653s.161-1.769.241-2.573.161-1.608.241-2.251h2.091Z" transform="translate(-46.729 -6.894)" fill="#c8c8c8"/>
    <path id="Path_5358" data-name="Path 5358" d="M84.075,8.1a8.637,8.637,0,0,1,.563,1.206c.241.482.482.965.724,1.528l.724,1.688c.241.563.482,1.126.643,1.608.241-.482.4-1.045.643-1.608l.724-1.688c.241-.563.482-1.045.724-1.528s.4-.884.563-1.206h2.091c.08.643.161,1.447.241,2.251s.161,1.688.241,2.573.08,1.769.161,2.653.08,1.769.161,2.573H90.105c0-.965-.08-2.01-.08-3.216-.08-1.126-.161-2.332-.241-3.457-.161.4-.4.884-.563,1.367-.241.482-.4.965-.643,1.447a10.738,10.738,0,0,0-.563,1.447,7.84,7.84,0,0,1-.482,1.126H85.924c-.161-.322-.322-.724-.482-1.126-.161-.482-.4-.884-.643-1.447-.241-.482-.4-.965-.643-1.447s-.4-.965-.563-1.367c-.08,1.206-.161,2.332-.241,3.457s-.08,2.171-.08,3.216H81.1c0-.8.08-1.608.161-2.573.08-.884.08-1.769.161-2.653s.161-1.769.241-2.573.161-1.608.241-2.251h2.171Z" transform="translate(-50.707 -6.894)" fill="#c8c8c8"/>
    <path id="Path_5359" data-name="Path 5359" d="M97,14.9a4.09,4.09,0,0,1,.322-1.769,5.019,5.019,0,0,1,.8-1.286,5.707,5.707,0,0,1,1.126-.8,3.756,3.756,0,0,1,1.367-.241,3.52,3.52,0,0,1,2.573.965,3.931,3.931,0,0,1,.965,2.895v.8h-4.9a1.329,1.329,0,0,0,.643,1.045,2.777,2.777,0,0,0,1.447.4,4.944,4.944,0,0,0,1.126-.08,8.345,8.345,0,0,0,.965-.241l.322,1.769c-.08.08-.241.08-.482.161-.161.08-.4.08-.643.161a2.226,2.226,0,0,1-.724.08c-.241,0-.563.08-.8.08a3.87,3.87,0,0,1-1.769-.322,5.019,5.019,0,0,1-1.286-.8,3.354,3.354,0,0,1-.724-1.286A3.263,3.263,0,0,1,97,14.9Zm5.065-.8c0-.161-.08-.322-.08-.563l-.241-.482a.8.8,0,0,0-.4-.322,1.367,1.367,0,0,0-1.286,0,.8.8,0,0,0-.4.322c-.08.161-.241.322-.241.482a5.126,5.126,0,0,0-.161.563Z" transform="translate(-53.823 -7.423)" fill="#c8c8c8"/>
    <path id="Path_5360" data-name="Path 5360" d="M114.7,17.535c-.161.08-.4.08-.643.161s-.482.08-.8.161c-.241,0-.563.08-.8.08h-.8a5.345,5.345,0,0,1-1.688-.241,3.181,3.181,0,0,1-1.206-.8,4.506,4.506,0,0,1-.8-1.206,5.184,5.184,0,0,1-.241-1.608,5.345,5.345,0,0,1,.241-1.688,6.41,6.41,0,0,1,.643-1.286,3.317,3.317,0,0,1,1.045-.8,3.9,3.9,0,0,1,1.447-.241,2.479,2.479,0,0,1,.8.08l.724.241V6.922l2.171-.322V17.535Zm-4.9-3.618a2.552,2.552,0,0,0,.482,1.608,1.608,1.608,0,0,0,1.367.643h.563a.6.6,0,0,0,.4-.08v-3.94a3.92,3.92,0,0,0-.563-.241,1.77,1.77,0,0,0-.643-.08C110.273,11.907,109.791,12.55,109.791,13.917Z" transform="translate(-55.92 -6.6)" fill="#c8c8c8"/>
    <path id="Path_5361" data-name="Path 5361" d="M121.173,7.986a1.332,1.332,0,0,1-.4.965,1.377,1.377,0,0,1-1.769,0,1.359,1.359,0,0,1,0-1.93,1.377,1.377,0,0,1,1.769,0A1.274,1.274,0,0,1,121.173,7.986Zm-.161,9.89h-2.171V10.238h2.171Z" transform="translate(-58.055 -6.62)" fill="#c8c8c8"/>
    <path id="Path_5362" data-name="Path 5362" d="M126.716,10.78a4.517,4.517,0,0,1,1.608.241,2.309,2.309,0,0,1,1.045.643,2.78,2.78,0,0,1,.563.965,6.249,6.249,0,0,1,.161,1.286v4.5a12.617,12.617,0,0,1-1.286.241,13.554,13.554,0,0,1-2.01.161,7.081,7.081,0,0,1-1.367-.161,4.039,4.039,0,0,1-1.045-.4,1.606,1.606,0,0,1-.643-.8,2.685,2.685,0,0,1-.241-1.206,2.335,2.335,0,0,1,.241-1.126,1.578,1.578,0,0,1,.724-.724,4.039,4.039,0,0,1,1.045-.4,6.206,6.206,0,0,1,1.206-.161h.724c.241,0,.4.08.563.08v-.241a1.1,1.1,0,0,0-.322-.884,1.572,1.572,0,0,0-1.126-.322,5.308,5.308,0,0,0-1.126.08l-.965.241-.241-1.769a1.143,1.143,0,0,0,.482-.161,1.567,1.567,0,0,1,.643-.08c.241,0,.482-.08.724-.08A1.568,1.568,0,0,0,126.716,10.78Zm.161,6.352h.643a.871.871,0,0,0,.482-.08V15.444a.874.874,0,0,1-.4-.08h-1.045a1.143,1.143,0,0,0-.482.161,1.11,1.11,0,0,0-.322.241.6.6,0,0,0-.08.4.784.784,0,0,0,.322.724A1.444,1.444,0,0,0,126.877,17.132Z" transform="translate(-59.016 -7.403)" fill="#c8c8c8"/>
  </g>
  <g id="Group_1173" data-name="Group 1173">
    <g id="Group_1169" data-name="Group 1169">
      <path id="Path_5363" data-name="Path 5363" d="M4.422,5.226V0H3.859A3.913,3.913,0,0,0,0,3.859V5.226Z" fill="#c8c8c8"/>
    </g>
    <g id="Group_1170" data-name="Group 1170" transform="translate(20.182)">
      <path id="Path_5364" data-name="Path 5364" d="M25.1,6.754h3.859V3.859A3.86,3.86,0,0,0,25.1,0V6.754Z" transform="translate(-25.1)" fill="#c8c8c8"/>
    </g>
    <g id="Group_1171" data-name="Group 1171" transform="translate(17.367 20.141)">
      <path id="Path_5365" data-name="Path 5365" d="M21.6,25.1v3.779h2.734A3.844,3.844,0,0,0,28.193,25.1H21.6Z" transform="translate(-21.6 -25.1)" fill="#c8c8c8"/>
    </g>
    <g id="Group_1172" data-name="Group 1172">
      <path id="Path_5366" data-name="Path 5366" d="M5.387,19.1H0V17.9H5.95a.634.634,0,0,1,.643.642V24H8.362V16.455H4.824a.634.634,0,0,1-.643-.642V11.237a1.491,1.491,0,0,1-.724-1.2A1.408,1.408,0,0,1,4.824,8.669a1.408,1.408,0,0,1,1.367,1.365,1.43,1.43,0,0,1-.8,1.284v3.933H8.925a.634.634,0,0,1,.643.642V24H12.3V21.271a1.43,1.43,0,0,1-.8-1.284,1.367,1.367,0,0,1,2.734,0,1.384,1.384,0,0,1-.724,1.2V23.92h2.573V19.505a.634.634,0,0,1,.643-.642h7.236V11.237H21.548V15.01a.634.634,0,0,1-.643.642H16.483a1.433,1.433,0,0,1-1.286.8,1.365,1.365,0,1,1,0-2.729,1.387,1.387,0,0,1,1.206.722h3.859V10.676a.634.634,0,0,1,.643-.642H23.88V7.946H19.458a.634.634,0,0,1-.643-.642V0H12.221V2.167h4.1a.634.634,0,0,1,.643.642V7.3a1.43,1.43,0,0,1,.8,1.284,1.367,1.367,0,0,1-2.734,0,1.384,1.384,0,0,1,.724-1.2V3.371h-4.1a.634.634,0,0,1-.643-.642V0H8.04V4.495h2.493a.634.634,0,0,1,.643.642v5.619a1.43,1.43,0,0,1,.8,1.284,1.367,1.367,0,0,1-2.734,0,1.491,1.491,0,0,1,.724-1.2V5.7H7.558a.691.691,0,0,1-.643-.642V0H5.628V5.779a.573.573,0,0,1-.563.642H0V20.067A3.857,3.857,0,0,0,3.859,23.92H5.387V19.1Z" fill="#c8c8c8"/>
    </g>
  </g>
</svg>
