<svg xmlns="http://www.w3.org/2000/svg" width="102.443" height="24" viewBox="0 0 102.443 24">
  <g id="_x36_" transform="translate(0 0.026)">
    <path id="Path_5367" data-name="Path 5367" d="M10,7.968A6.1,6.1,0,0,0,4.679,6.035L4.195,7A5.525,5.525,0,0,1,7.1,8.612a5.346,5.346,0,0,1-.323,7.57,4.918,4.918,0,0,1-2.581,1.289,1.76,1.76,0,0,0,.242.4,5.774,5.774,0,0,0,5.244-1.45A5.977,5.977,0,0,0,10,7.968ZM6.131,14.331a3.5,3.5,0,0,0-.807-4.913A3.514,3.514,0,0,0,.4,10.223a2.518,2.518,0,0,0-.4.805,1.741,1.741,0,0,1,2.339-.161,1.89,1.89,0,0,1,.4,2.577,1.9,1.9,0,0,1-2.581.4.079.079,0,0,1-.081-.081A3.449,3.449,0,0,0,1.21,15.055,3.488,3.488,0,0,0,6.131,14.331ZM16.7,5.632a9.536,9.536,0,0,0-9.68-2.658c-.081.081-.081.161-.161.161a10.427,10.427,0,0,0-1.291,1.45,7.361,7.361,0,0,1,6.05,2.336,7.268,7.268,0,0,1-.484,10.309,7.18,7.18,0,0,1-5.808,1.852,8.534,8.534,0,0,0,.807.966,7.6,7.6,0,0,0,.807.805,9.5,9.5,0,0,0,9.2-2.013A9.3,9.3,0,0,0,16.7,5.632ZM9.358,1.364a10.817,10.817,0,0,1,9.277,3.383,10.693,10.693,0,0,1-.645,15.141,10.919,10.919,0,0,1-8.551,2.738A12,12,0,1,0,9.358,1.364Z" transform="translate(0 0)" fill="#c8c8c8"/>
    <g id="Group_1174" data-name="Group 1174" transform="translate(37.666 5.142)">
      <path id="Path_5368" data-name="Path 5368" d="M46.9,7.2h4.517a3.681,3.681,0,0,1,2.339.726,2.455,2.455,0,0,1,.887,1.936,2.719,2.719,0,0,1-.4,1.371,2.637,2.637,0,0,1-1.21.887,3.376,3.376,0,0,1,1.452.887,2.368,2.368,0,0,1,.565,1.533,2.447,2.447,0,0,1-.968,2.017,3.963,3.963,0,0,1-2.42.807H46.9V7.2Zm4.356,1.452H48.675v2.823h2.581a1.981,1.981,0,0,0,1.21-.4,1.2,1.2,0,0,0,.484-1.049,1.2,1.2,0,0,0-.484-1.049A1.944,1.944,0,0,0,51.256,8.652Zm.161,7.26a2.053,2.053,0,0,0,1.291-.4,1.465,1.465,0,0,0,.484-1.129,1.354,1.354,0,0,0-.484-1.129,2.053,2.053,0,0,0-1.291-.4H48.675v3.065Z" transform="translate(-46.9 -6.555)" fill="#c8c8c8"/>
      <path id="Path_5369" data-name="Path 5369" d="M58.8,14.391a2.763,2.763,0,0,1,.323-1.452,3.191,3.191,0,0,1,.807-1.21,5.726,5.726,0,0,1,1.129-.807,4.711,4.711,0,0,1,1.452-.323,3.164,3.164,0,0,1,1.452.323,4.049,4.049,0,0,1,1.129.807,4.521,4.521,0,0,1,.807,1.21,4.568,4.568,0,0,1,.242,1.452,3.5,3.5,0,0,1-.323,1.533,3.191,3.191,0,0,1-.807,1.21,5.726,5.726,0,0,1-1.129.807,3.908,3.908,0,0,1-1.452.242,2.954,2.954,0,0,1-1.452-.323,2.894,2.894,0,0,1-1.129-.807,4.521,4.521,0,0,1-.807-1.21A3.908,3.908,0,0,1,58.8,14.391Zm3.63,2.339a2.02,2.02,0,0,0,1.452-.645,2.4,2.4,0,0,0,.565-1.694,2.273,2.273,0,0,0-.565-1.694,1.752,1.752,0,0,0-1.452-.645,2.02,2.02,0,0,0-1.452.645,2.532,2.532,0,0,0-.565,1.694,2.532,2.532,0,0,0,.565,1.694A1.752,1.752,0,0,0,62.43,16.731Z" transform="translate(-49.2 -7.212)" fill="#c8c8c8"/>
      <path id="Path_5370" data-name="Path 5370" d="M69.6,14.391a2.763,2.763,0,0,1,.323-1.452,3.191,3.191,0,0,1,.807-1.21,5.726,5.726,0,0,1,1.129-.807,4.711,4.711,0,0,1,1.452-.323,3.164,3.164,0,0,1,1.452.323,4.049,4.049,0,0,1,1.129.807,4.521,4.521,0,0,1,.807,1.21,4.568,4.568,0,0,1,.242,1.452,3.5,3.5,0,0,1-.323,1.533,3.191,3.191,0,0,1-.807,1.21,5.726,5.726,0,0,1-1.129.807,4.711,4.711,0,0,1-1.452.323,3.164,3.164,0,0,1-1.452-.323,2.894,2.894,0,0,1-1.129-.807,4.521,4.521,0,0,1-.807-1.21A4.7,4.7,0,0,1,69.6,14.391Zm3.711,2.339a2.02,2.02,0,0,0,1.452-.645,2.4,2.4,0,0,0,.565-1.694,2.272,2.272,0,0,0-.565-1.694,1.752,1.752,0,0,0-1.452-.645,2.02,2.02,0,0,0-1.452.645,2.532,2.532,0,0,0-.565,1.694,2.532,2.532,0,0,0,.565,1.694A1.573,1.573,0,0,0,73.311,16.731Z" transform="translate(-51.288 -7.212)" fill="#c8c8c8"/>
      <path id="Path_5371" data-name="Path 5371" d="M80,17.2l.807-1.129a9.315,9.315,0,0,0,1.21.645,2.383,2.383,0,0,0,1.049.161,2.018,2.018,0,0,0,1.049-.242.847.847,0,0,0,.4-.726.732.732,0,0,0-.242-.565,1.52,1.52,0,0,0-.726-.323l-1.291-.242a3,3,0,0,1-1.613-.726,1.9,1.9,0,0,1-.565-1.291,1.883,1.883,0,0,1,.807-1.613A3.176,3.176,0,0,1,82.9,10.5a4.568,4.568,0,0,1,1.452.242,4.28,4.28,0,0,1,1.371.645l-.807,1.049a7.376,7.376,0,0,0-1.129-.565,4.721,4.721,0,0,0-1.049-.161,1.449,1.449,0,0,0-.887.242.655.655,0,0,0-.323.645.488.488,0,0,0,.242.484,1.584,1.584,0,0,0,.807.242l1.291.242a3.343,3.343,0,0,1,1.613.726,1.9,1.9,0,0,1,.565,1.291,2.148,2.148,0,0,1-.242.968,1.423,1.423,0,0,1-.645.726,3.626,3.626,0,0,1-.968.484,5.447,5.447,0,0,1-1.129.161,6.291,6.291,0,0,1-1.775-.242A3.08,3.08,0,0,1,80,17.2Z" transform="translate(-53.298 -7.193)" fill="#c8c8c8"/>
      <path id="Path_5372" data-name="Path 5372" d="M90.052,15.564V11.53H88.6V10.239h1.452V8.223L91.665,7.9v2.339h2.017V11.53H91.665v3.711c0,.323.081.645.242.726a1.071,1.071,0,0,0,.807.242H93.2a2.052,2.052,0,0,0,.565-.161v1.371c-.242.081-.484.081-.726.161-.242,0-.484.081-.726.081a2.647,2.647,0,0,1-1.694-.484A1.971,1.971,0,0,1,90.052,15.564Z" transform="translate(-54.961 -6.69)" fill="#c8c8c8"/>
      <path id="Path_5373" data-name="Path 5373" d="M102.7,17.134a4.071,4.071,0,0,1-1.371.807,4.7,4.7,0,0,1-1.533.242,3.164,3.164,0,0,1-1.452-.323,3.972,3.972,0,0,1-1.21-.807,3.191,3.191,0,0,1-.807-1.21A3.164,3.164,0,0,1,96,14.391a3.908,3.908,0,0,1,.242-1.452,3.038,3.038,0,0,1,.726-1.21,5.726,5.726,0,0,1,1.129-.807,3.076,3.076,0,0,1,2.743,0,2.621,2.621,0,0,1,1.049.807,4.379,4.379,0,0,1,.726,1.21,4.7,4.7,0,0,1,.242,1.533v.4h-5.4a2.5,2.5,0,0,0,.726,1.452,1.944,1.944,0,0,0,1.452.565,4.049,4.049,0,0,0,.968-.161,1.641,1.641,0,0,0,.726-.484ZM99.63,11.971a1.642,1.642,0,0,0-1.21.484,2.458,2.458,0,0,0-.645,1.291h3.791a2.192,2.192,0,0,0-.645-1.291A1.832,1.832,0,0,0,99.63,11.971Z" transform="translate(-56.391 -7.212)" fill="#c8c8c8"/>
      <path id="Path_5374" data-name="Path 5374" d="M106.9,18.041v-7.26h1.613v1.613a2.953,2.953,0,0,1,.807-1.291,1.584,1.584,0,0,1,1.21-.4c.161,0,.242,0,.323.081.081,0,.242.081.323.081v1.452c-.161-.081-.242-.081-.4-.161a1.023,1.023,0,0,0-.484-.081,1.621,1.621,0,0,0-1.049.323,1.972,1.972,0,0,0-.726.887v4.76Z" transform="translate(-58.498 -7.231)" fill="#c8c8c8"/>
      <path id="Path_5375" data-name="Path 5375" d="M114.749,8.5a.985.985,0,0,1-.726-.323.876.876,0,0,1-.323-.726.985.985,0,0,1,.323-.726.876.876,0,0,1,.726-.323.985.985,0,0,1,.726.323.876.876,0,0,1,.323.726A1.107,1.107,0,0,1,114.749,8.5Zm.807,1.452v7.26h-1.613V9.949Z" transform="translate(-59.813 -6.4)" fill="#c8c8c8"/>
      <path id="Path_5376" data-name="Path 5376" d="M118.1,14.391a2.763,2.763,0,0,1,.323-1.452,3.191,3.191,0,0,1,.807-1.21,5.726,5.726,0,0,1,1.129-.807,4.711,4.711,0,0,1,1.452-.323,3.164,3.164,0,0,1,1.452.323,4.049,4.049,0,0,1,1.129.807,4.521,4.521,0,0,1,.807,1.21,4.568,4.568,0,0,1,.242,1.452,3.5,3.5,0,0,1-.323,1.533,3.191,3.191,0,0,1-.807,1.21,5.726,5.726,0,0,1-1.129.807,4.711,4.711,0,0,1-1.452.323,3.164,3.164,0,0,1-1.452-.323,2.894,2.894,0,0,1-1.129-.807,4.521,4.521,0,0,1-.807-1.21A4.7,4.7,0,0,1,118.1,14.391Zm3.63,2.339a2.02,2.02,0,0,0,1.452-.645,2.4,2.4,0,0,0,.565-1.694,2.273,2.273,0,0,0-.565-1.694,1.752,1.752,0,0,0-1.452-.645,2.02,2.02,0,0,0-1.452.645,2.532,2.532,0,0,0-.565,1.694,2.532,2.532,0,0,0,.565,1.694A1.752,1.752,0,0,0,121.73,16.731Z" transform="translate(-60.663 -7.212)" fill="#c8c8c8"/>
    </g>
  </g>
</svg>
