<svg xmlns="http://www.w3.org/2000/svg" width="79.47" height="24" viewBox="0 0 79.47 24">
  <g id="amazon" transform="translate(-7.6 -6.4)">
    <path id="arrow_1_" d="M72,44.521a42.834,42.834,0,0,1-16.327,3.345,43,43,0,0,1-21.432-5.677c-.528-.308-.924.264-.484.66A31.872,31.872,0,0,0,55.191,50.99c5.9,0,12.762-1.892,17.515-5.369C73.455,45.049,72.751,44.169,72,44.521Z" transform="translate(-14.541 -20.59)" fill="#fff"/>
    <path id="arrow" d="M113.778,41.448c-.4.308-.308.7.132.66,1.5-.176,4.929-.572,5.545.22s-.66,3.961-1.232,5.413c-.176.44.22.616.572.308,2.552-2.112,3.213-6.6,2.641-7.217C120.908,40.084,116.463,39.556,113.778,41.448Z" transform="translate(-60.573 -19.498)" fill="#fff"/>
    <path id="z" d="M122.95,17.642A9.027,9.027,0,0,0,118.2,16.63l4.313-6.161a2.417,2.417,0,0,0,.616-1.144V7.74a.428.428,0,0,0-.484-.44h-8.318a.441.441,0,0,0-.44.44V9.588h0a.428.428,0,0,0,.484.44h4.357l-5.017,7.129a2.164,2.164,0,0,0-.308,1.276v1.892c0,.308.308.572.572.4a9.47,9.47,0,0,1,8.758,0c.308.176.616-.176.616-.4V18.39A.819.819,0,0,0,122.95,17.642Z" transform="translate(-60.534 -0.504)" fill="#fff"/>
    <path id="m" d="M39.651,20.771H42.2a.453.453,0,0,0,.484-.44V13.465c0-1.5-.088-3.565,1.76-3.565,1.8,0,1.54,2.112,1.54,3.565v6.865a.441.441,0,0,0,.44.44h2.552a.453.453,0,0,0,.484-.44V13.465a6.777,6.777,0,0,1,.264-2.508,1.644,1.644,0,0,1,1.5-1.056c.748,0,1.32.264,1.452,1.1a14.846,14.846,0,0,1,.088,2.42v6.865a.441.441,0,0,0,.44.44h2.552a.453.453,0,0,0,.484-.44V12.1c0-1.408.176-2.993-.66-4.049a3.686,3.686,0,0,0-2.9-1.452A3.633,3.633,0,0,0,49.2,9.02c-.7-1.628-1.672-2.42-3.257-2.42a3.348,3.348,0,0,0-3.3,2.42H42.6V7.348c0-.264-.22-.4-.44-.44H39.827a.453.453,0,0,0-.484.44V20.287C39.211,20.551,39.387,20.727,39.651,20.771Z" transform="translate(-18.178 -0.112)" fill="#fff"/>
    <path id="o" d="M144.477,6.7c-3.653,0-5.677,3.169-5.677,7.173s2.024,7.217,5.677,7.217c3.521,0,5.765-3.169,5.765-7.085C150.286,9.957,148.262,6.7,144.477,6.7Zm0,11.706c-1.98,0-1.98-3.389-1.98-4.973s.132-4.093,1.98-4.093a1.521,1.521,0,0,1,1.628,1.276,12.64,12.64,0,0,1,.352,3.433C146.546,15.722,146.457,18.406,144.477,18.406Z" transform="translate(-75.101 -0.168)" fill="#fff"/>
    <path id="n" d="M175.933,6.7c-1.76,0-2.729.88-3.433,2.641h-.044V7.36a.463.463,0,0,0-.44-.352h-2.332a.523.523,0,0,0-.484.4V20.343a.441.441,0,0,0,.44.44h2.508a.453.453,0,0,0,.484-.44V13.389a5.811,5.811,0,0,1,.4-2.464,1.71,1.71,0,0,1,1.452-1.012c1.76,0,1.584,2.068,1.584,3.477v7.041a.468.468,0,0,0,.44.4h2.552a.479.479,0,0,0,.484-.4V12.289c0-1.276,0-2.993-.66-4A3.207,3.207,0,0,0,175.933,6.7Z" transform="translate(-92.471 -0.168)" fill="#fff"/>
    <path id="a_1_" d="M90.137,11.9a19.669,19.669,0,0,0-4.753.88A4.3,4.3,0,0,0,82.7,16.918a3.55,3.55,0,0,0,3.785,3.917,4.953,4.953,0,0,0,4.181-1.848,6.044,6.044,0,0,0,1.452,1.672.62.62,0,0,0,.616-.044h0c.484-.44,1.452-1.232,1.936-1.672.22-.176.176-.44,0-.66a3.557,3.557,0,0,1-.924-2.332V12.033c0-1.672.132-3.213-1.1-4.357A5.756,5.756,0,0,0,88.817,6.4c-2.42,0-5.061.88-5.633,3.829a.465.465,0,0,0,.352.528l2.376.308c.264,0,.4-.264.44-.44a1.914,1.914,0,0,1,2.024-1.5,1.88,1.88,0,0,1,1.452.66,3.3,3.3,0,0,1,.308,1.848V11.9Zm-.528,5.237a2.023,2.023,0,0,1-1.76,1.144c-.968,0-1.54-.748-1.54-1.848,0-2.156,1.936-2.552,3.785-2.552v.528A4.363,4.363,0,0,1,89.609,17.138Z" transform="translate(-42.998)" fill="#fff"/>
    <path id="a" d="M19.482,18.282a3.557,3.557,0,0,1-.924-2.332V12.033c0-1.672.132-3.213-1.1-4.357A5.834,5.834,0,0,0,13.629,6.4c-2.42,0-5.061.88-5.633,3.829a.465.465,0,0,0,.352.528l2.464.264c.264,0,.4-.264.44-.44a1.932,1.932,0,0,1,2.068-1.5,1.88,1.88,0,0,1,1.452.66,3.3,3.3,0,0,1,.308,1.848V11.9a19.63,19.63,0,0,0-4.8.88A4.3,4.3,0,0,0,7.6,16.918a3.55,3.55,0,0,0,3.785,3.917,4.953,4.953,0,0,0,4.181-1.848,6.044,6.044,0,0,0,1.452,1.672.62.62,0,0,0,.616-.044h0c.484-.44,1.452-1.232,1.936-1.672A.546.546,0,0,0,19.482,18.282Zm-4.929-1.144a2.023,2.023,0,0,1-1.76,1.144c-.968,0-1.5-.748-1.5-1.848,0-2.156,1.936-2.552,3.785-2.552v.528A6.05,6.05,0,0,1,14.553,17.138Z" transform="translate(0 0)" fill="#fff"/>
  </g>
</svg>
