<svg xmlns="http://www.w3.org/2000/svg" width="73.256" height="24" viewBox="0 0 73.256 24">
  <g id="google" transform="translate(-4.2 -2.199)">
    <path id="g_1_" d="M21.943,10.527H13.5V13h6c-.3,3.489-3.226,5.027-5.964,5.027a6.572,6.572,0,0,1-6.6-6.64,6.59,6.59,0,0,1,6.6-6.715,6.435,6.435,0,0,1,4.5,1.8l1.726-1.8A8.945,8.945,0,0,0,13.428,2.2,9.246,9.246,0,0,0,4.2,11.315a9.291,9.291,0,0,0,9.378,9.191c4.914,0,8.515-3.339,8.515-8.328a7.5,7.5,0,0,0-.15-1.651Z" fill="#c8c8c8"/>
    <path id="o_2_" d="M59.927,19.5A5.909,5.909,0,1,0,60,31.316a5.76,5.76,0,0,0,5.889-5.889A5.836,5.836,0,0,0,59.927,19.5Zm.038,2.363a3.4,3.4,0,0,1,3.3,3.564,3.33,3.33,0,1,1-6.64-.038,3.324,3.324,0,0,1,3.339-3.526Z" transform="translate(-30.772 -10.609)" fill="#c8c8c8"/>
    <path id="o_1_" d="M94.327,19.5A5.909,5.909,0,1,0,94.4,31.316a5.76,5.76,0,0,0,5.889-5.889A5.836,5.836,0,0,0,94.327,19.5Zm.038,2.363a3.4,3.4,0,0,1,3.3,3.564,3.33,3.33,0,1,1-6.64-.038,3.324,3.324,0,0,1,3.339-3.526Z" transform="translate(-52.027 -10.609)" fill="#c8c8c8"/>
    <path id="g" d="M128.464,19.6a5.915,5.915,0,0,0-.075,11.816,3.959,3.959,0,0,0,3.264-1.425v1.163a2.977,2.977,0,0,1-3.114,3.264,3.345,3.345,0,0,1-3.039-2.1l-2.288.938a5.628,5.628,0,0,0,5.289,3.451c3.151,0,5.552-1.988,5.552-6.152V19.938h-2.476V20.95a3.867,3.867,0,0,0-3.114-1.35Zm.225,2.326a3.363,3.363,0,0,1,3.151,3.6,3.265,3.265,0,0,1-3.189,3.564,3.355,3.355,0,0,1-3.264-3.526,3.416,3.416,0,0,1,3.3-3.639Z" transform="translate(-73.292 -10.506)" fill="#c8c8c8"/>
    <path id="e" d="M173.214,19.5a5.571,5.571,0,0,0-5.514,5.889,5.718,5.718,0,0,0,5.777,5.927,6.072,6.072,0,0,0,4.952-2.588l-2.063-1.388a3.3,3.3,0,0,1-2.888,1.613,3.029,3.029,0,0,1-2.888-1.8l7.915-3.3-.413-.975a5.415,5.415,0,0,0-4.877-3.376Zm.075,2.288a2.406,2.406,0,0,1,2.213,1.275l-5.252,2.213a3.2,3.2,0,0,1,3.038-3.489Z" transform="translate(-101.047 -10.609)" fill="#c8c8c8"/>
    <path id="l" d="M157.7,21.106h2.588V3.7H157.7Z" transform="translate(-94.991 -0.938)" fill="#c8c8c8"/>
  </g>
</svg>
