<svg xmlns="http://www.w3.org/2000/svg" width="121.519" height="24" viewBox="0 0 121.519 24">
  <g id="lenovo" transform="translate(-0.2 -12.7)">
    <path id="n_1_" d="M73.565,21.2a7.717,7.717,0,0,0-6.078,2.977h0V21.51H62.4V40.118h5.086V29.511A3.968,3.968,0,0,1,71.7,25.6a4.091,4.091,0,0,1,4.28,3.908V40.118H81.07V28.581C81.132,24.3,78.092,21.2,73.565,21.2Z" transform="translate(-24.547 -3.728)" fill="#c8c8c8"/>
    <path id="v" d="M141.972,21.7l-4.59,12.653L132.73,21.7H126.9l7.691,18.608h5.582L147.8,21.7Z" transform="translate(-50.043 -3.918)" fill="#c8c8c8"/>
    <path id="e_1_" d="M45.243,24.239A9.442,9.442,0,0,0,37.862,21.2,9.527,9.527,0,0,0,28,30.814c0,5.644,4.28,9.614,10.42,9.614A12.314,12.314,0,0,0,47.1,36.892l-3.225-2.481C41.77,35.962,40.529,36.4,38.544,36.4a5.687,5.687,0,0,1-4.094-1.489l13.087-5.4A10.267,10.267,0,0,0,45.243,24.239ZM33.024,31.558a5.9,5.9,0,0,1,1.054-4.466,4.685,4.685,0,0,1,3.908-1.861,4.294,4.294,0,0,1,3.97,2.605Z" transform="translate(-10.557 -3.728)" fill="#c8c8c8"/>
    <path id="l_1_" d="M5.41,12.7H.2V36.39H17.009V31.773H5.41Z" transform="translate(0)" fill="#c8c8c8"/>
    <path id="o_4_" d="M169.448,21.2a9.622,9.622,0,1,0,9.986,9.614A9.724,9.724,0,0,0,169.448,21.2Zm0,14.824a5.1,5.1,0,0,1-5.024-5.272c0-3.1,2.047-5.272,4.9-5.272a5.1,5.1,0,0,1,5.024,5.272C174.348,33.853,172.3,36.024,169.448,36.024Z" transform="translate(-62.987 -3.728)" fill="#c8c8c8"/>
    <path id="o_3_" d="M105.948,21.2a9.622,9.622,0,1,0,9.986,9.614A9.724,9.724,0,0,0,105.948,21.2Zm0,14.824a5.1,5.1,0,0,1-5.024-5.272c0-3.1,2.047-5.272,4.9-5.272a5.1,5.1,0,0,1,5.024,5.272C110.848,33.853,108.8,36.024,105.948,36.024Z" transform="translate(-37.786 -3.728)" fill="#c8c8c8"/>
    <path id="t" d="M191.4,47.834h.868v2.233h.5V47.834h.806V47.4H191.4Z" transform="translate(-75.139 -13.677)" fill="#c8c8c8"/>
    <path id="m_1_" d="M197.971,47.4l-.806,1.241-.806-1.241H195.8v2.667h.5V48.144l.868,1.3h.062l.806-1.3v1.923h.5V47.4Z" transform="translate(-76.81 -13.677)" fill="#c8c8c8"/>
  </g>
</svg>
