<svg xmlns="http://www.w3.org/2000/svg" width="98.171" height="24" viewBox="0 0 98.171 24">
  <g id="paypal" transform="translate(0.011 -8.1)">
    <path id="Path_4840" data-name="Path 4840" d="M149.192,20.4a5.281,5.281,0,0,0-4.05-1.4h-5.55a.757.757,0,0,0-.75.65l-2.25,14.2a.452.452,0,0,0,.45.55h2.85a.586.586,0,0,0,.55-.45l.65-4a.8.8,0,0,1,.75-.65h1.75q5.475,0,6.3-5.25A4.438,4.438,0,0,0,149.192,20.4Zm-3.4,3.8c-.3,2-1.8,2-3.3,2h-.85l.6-3.7a.531.531,0,0,1,.45-.4h.4c1,0,1.95,0,2.45.55A2.086,2.086,0,0,1,145.792,24.2Z" transform="translate(-69.749 -5.9)" fill="#c8c8c8"/>
    <path id="Path_4841" data-name="Path 4841" d="M174.271,29.1h-2.65a.438.438,0,0,0-.45.4l-.1.75-.2-.25c-.55-.85-1.85-1.1-3.15-1.1a6.019,6.019,0,0,0-5.9,5.35,4.872,4.872,0,0,0,1,4.05,4.135,4.135,0,0,0,3.35,1.35,5.053,5.053,0,0,0,3.65-1.5l-.1.75a.452.452,0,0,0,.45.55h2.4a.757.757,0,0,0,.75-.65l1.45-9.05C174.771,29.35,174.571,29.1,174.271,29.1Zm-3.7,5.15a2.976,2.976,0,0,1-3,2.55,2.37,2.37,0,0,1-1.8-.7,2.129,2.129,0,0,1-.4-1.85,2.962,2.962,0,0,1,2.95-2.55,2.257,2.257,0,0,1,1.75.7A1.981,1.981,0,0,1,170.571,34.25Z" transform="translate(-82.718 -10.85)" fill="#c8c8c8"/>
    <path id="Path_4842" data-name="Path 4842" d="M193.842,19h-2.55a.438.438,0,0,0-.45.4l-2.25,14.45a.452.452,0,0,0,.45.55h2.3a.717.717,0,0,0,.75-.65l2.2-14.2A.477.477,0,0,0,193.842,19Z" transform="translate(-96.138 -5.9)" fill="#c8c8c8"/>
    <path id="Path_4843" data-name="Path 4843" d="M70.292,20.4a5.282,5.282,0,0,0-4.05-1.4h-5.55a.757.757,0,0,0-.75.65l-2.25,14.2a.452.452,0,0,0,.45.55h2.65a.717.717,0,0,0,.75-.65l.6-3.85a.8.8,0,0,1,.75-.65h1.75q5.475,0,6.3-5.25A4.192,4.192,0,0,0,70.292,20.4Zm-3.4,3.8c-.3,2-1.8,2-3.3,2h-.85l.6-3.7a.531.531,0,0,1,.45-.4h.4c1,0,1.95,0,2.45.55A2.087,2.087,0,0,1,66.892,24.2Z" transform="translate(-29.461 -5.9)" fill="#c8c8c8"/>
    <path id="Path_4844" data-name="Path 4844" d="M95.371,29.1h-2.65a.438.438,0,0,0-.45.4l-.1.75-.2-.25c-.55-.85-1.85-1.1-3.15-1.1a6.019,6.019,0,0,0-5.9,5.35,4.872,4.872,0,0,0,1,4.05,4.135,4.135,0,0,0,3.35,1.35,5.053,5.053,0,0,0,3.65-1.5l-.1.75a.452.452,0,0,0,.45.55h2.4a.757.757,0,0,0,.75-.65l1.45-9.05C95.871,29.35,95.621,29.1,95.371,29.1Zm-3.7,5.15a2.976,2.976,0,0,1-3,2.55,2.37,2.37,0,0,1-1.8-.7,2.129,2.129,0,0,1-.4-1.85,2.962,2.962,0,0,1,2.95-2.55,2.257,2.257,0,0,1,1.75.7A2.118,2.118,0,0,1,91.671,34.25Z" transform="translate(-42.304 -10.85)" fill="#c8c8c8"/>
    <path id="Path_4845" data-name="Path 4845" d="M123.728,29.3h-2.65a.855.855,0,0,0-.65.35l-3.65,5.4-1.6-5.2a.751.751,0,0,0-.75-.55h-2.6a.469.469,0,0,0-.45.6l2.95,8.6-2.75,3.9a.485.485,0,0,0,.4.75h2.65a.729.729,0,0,0,.65-.35l8.85-12.8A.463.463,0,0,0,123.728,29.3Z" transform="translate(-56.859 -11.05)" fill="#c8c8c8"/>
    <path id="Path_4846" data-name="Path 4846" d="M24.744,21.35a3.8,3.8,0,0,0-1.1-.85h0a1.46,1.46,0,0,1-.1.45c-.05.15-.05.3-.1.4a7.609,7.609,0,0,1-7.15,6.45,3.3,3.3,0,0,1-.7.05h-3.05a1.036,1.036,0,0,0-1.05.9l-1,6.4-.15.85-.35,2.05a.554.554,0,0,0,.55.65h3.95a1.009,1.009,0,0,0,.95-.8l.05-.2.75-4.7.05-.25a.929.929,0,0,1,.95-.8h.6c3.85,0,6.8-1.55,7.7-6.05C25.894,24,25.694,22.45,24.744,21.35Z" transform="translate(-4.999 -6.65)" fill="#c8c8c8"/>
    <path id="Path_4847" data-name="Path 4847" d="M6.495,22.3l.05-.245,1.25-7.834a.87.87,0,0,1,.55-.685,1.2,1.2,0,0,1,.4-.1h5.95a12.126,12.126,0,0,1,1.95.147c.15.049.35.049.5.1a1.486,1.486,0,0,0,.45.1c.05,0,.1.049.15.049h.1a3.913,3.913,0,0,1,.8.343h0a4.578,4.578,0,0,0-1.05-4.26c-1.1-1.273-3.15-1.812-5.75-1.812h-7.6a1.029,1.029,0,0,0-1.05.881l-3.2,19.634a.649.649,0,0,0,.65.734h4.7l.15-.832Z" transform="translate(0)" fill="#bebebe"/>
    <path id="Path_4848" data-name="Path 4848" d="M25.15,19.75a3.87,3.87,0,0,0-.8-.35h-.1c-.05,0-.1-.05-.15-.05a1.46,1.46,0,0,0-.45-.1c-.15-.05-.35-.05-.5-.1A11.88,11.88,0,0,0,21.2,19h-6a.942.942,0,0,0-.4.1,1.1,1.1,0,0,0-.55.7L13,27.8v.25a1.067,1.067,0,0,1,1.05-.9H17.1c.25,0,.5-.05.7-.05A7.7,7.7,0,0,0,25,20.7c.05-.15.05-.25.1-.4,0-.25.05-.4.05-.55Z" transform="translate(-6.505 -5.609)" fill="#c8c8c8" stroke="#bebebe" stroke-width="0.1"/>
  </g>
</svg>
