<svg xmlns="http://www.w3.org/2000/svg" width="83.895" height="24" viewBox="0 0 83.895 24">
  <g id="shopify" transform="translate(-0.8 -4.3)">
    <path id="Path_4849" data-name="Path 4849" d="M18.63,8.925c0-.126-.125-.168-.208-.21-.083,0-1.875-.126-1.875-.126L15.173,7.2c-.125-.126-.417-.084-.5-.084,0,0-.292.084-.708.21-.417-1.219-1.125-2.312-2.416-2.312h-.083A1.7,1.7,0,0,0,10.257,4.3c-3,0-4.416,3.784-4.874,5.718-1.166.378-2,.631-2.083.631-.625.21-.667.21-.75.841C2.466,11.91.8,25.195.8,25.195l13.206,2.48,7.165-1.513S18.672,9.051,18.63,8.925ZM13.256,7.579c-.333.126-.708.21-1.125.336V7.663a5.266,5.266,0,0,0-.292-1.808C12.548,5.9,13.006,6.7,13.256,7.579ZM11.09,6.024a6.073,6.073,0,0,1,.292,2.018v.126c-.708.21-1.5.462-2.291.715A3.772,3.772,0,0,1,11.09,6.024Zm-.917-.841a.668.668,0,0,1,.375.126c-.958.462-2,1.6-2.416,3.91-.625.21-1.25.378-1.833.547C6.841,8,8.049,5.183,10.173,5.183Z" fill="#c8c8c8"/>
    <path id="Path_4850" data-name="Path 4850" d="M36.858,12.6c-.083,0-1.875-.126-1.875-.126l-1.375-1.389A.317.317,0,0,0,33.4,11l-1,20.626,7.207-1.557s-2.5-17.174-2.541-17.3C37.066,12.642,36.941,12.6,36.858,12.6Z" transform="translate(-18.307 -3.909)" fill="#c8c8c8"/>
    <path id="Path_4851" data-name="Path 4851" d="M16.024,23.775,15.149,26.4a4.114,4.114,0,0,0-1.708-.417c-1.375,0-1.458.875-1.458,1.083,0,1.208,3.124,1.666,3.124,4.458a3.314,3.314,0,0,1-3.291,3.624A4.579,4.579,0,0,1,8.4,33.732l.583-2a4.391,4.391,0,0,0,2.208,1.041.87.87,0,0,0,.917-.917c0-1.583-2.583-1.625-2.583-4.208,0-2.166,1.541-4.249,4.708-4.249A3.526,3.526,0,0,1,16.024,23.775Z" transform="translate(-4.434 -11.003)" fill="#fff"/>
    <path id="Path_4852" data-name="Path 4852" d="M62.682,24.082c-.708-.375-1.083-.708-1.083-1.166,0-.583.5-.958,1.333-.958a4.822,4.822,0,0,1,1.75.375l.667-2a4.151,4.151,0,0,0-2.375-.458c-2.458,0-4.166,1.416-4.166,3.374a3.061,3.061,0,0,0,1.875,2.583c.875.5,1.166.833,1.166,1.333,0,.542-.417.958-1.25.958a5.191,5.191,0,0,1-2.291-.625l-.708,2a5.289,5.289,0,0,0,2.791.708c2.541,0,4.333-1.25,4.333-3.5a3.535,3.535,0,0,0-2.041-2.625Zm10.082-4.166a3.851,3.851,0,0,0-3,1.5h-.042l1.083-5.707H67.973l-2.75,14.414h2.833l.958-4.916c.375-1.875,1.333-3,2.208-3,.625,0,.875.417.875,1.041a6.358,6.358,0,0,1-.125,1.25l-1.083,5.624h2.875l1.125-5.832a10.294,10.294,0,0,0,.208-1.833c-.042-1.583-.875-2.541-2.333-2.541Zm8.665,0c-3.374,0-5.624,3.083-5.624,6.457a3.671,3.671,0,0,0,3.874,3.958c3.333,0,5.582-3,5.582-6.457a3.655,3.655,0,0,0-3.833-3.958Zm-1.375,8.207c-.958,0-1.375-.833-1.375-1.833,0-1.625.833-4.249,2.375-4.249,1,0,1.333.875,1.333,1.708C82.346,25.457,81.513,28.123,80.055,28.123Zm12.415-8.207a3.877,3.877,0,0,0-3,1.666h-.042l.167-1.5H87.1c-.125,1.041-.333,2.583-.583,3.749L84.6,34.122h2.791l.792-4.166h.042a3.278,3.278,0,0,0,1.666.375c3.291,0,5.457-3.374,5.457-6.832,0-1.916-.833-3.583-2.875-3.583Zm-2.708,8.207a1.725,1.725,0,0,1-1.166-.417l.458-2.625c.333-1.75,1.25-2.916,2.208-2.916.875,0,1.125.792,1.125,1.541C92.427,25.582,91.344,28.123,89.761,28.123Zm9.623-12.29a1.6,1.6,0,0,0-1.625,1.625,1.314,1.314,0,0,0,1.333,1.416h.042A1.607,1.607,0,0,0,100.8,17.25a1.38,1.38,0,0,0-1.416-1.416ZM95.427,30.039H98.26l1.916-10H97.343m10,.083h-1.958l.083-.458c.167-.958.75-1.833,1.666-1.833a3.559,3.559,0,0,1,.917.125l.542-2.208a3.738,3.738,0,0,0-1.541-.25,4.1,4.1,0,0,0-2.75.958,5.305,5.305,0,0,0-1.625,3.166l-.083.458h-1.333l-.417,2.125h1.333l-1.5,7.832h2.833l1.5-7.874h1.958l.375-2.041Zm6.749,0s-1.75,4.458-2.541,6.874h-.042c-.042-.792-.708-6.874-.708-6.874h-2.958l1.708,9.165a.785.785,0,0,1-.042.458,4.976,4.976,0,0,1-1.541,1.708,7,7,0,0,1-1.583.792l.792,2.375a6.224,6.224,0,0,0,2.75-1.541,19.848,19.848,0,0,0,3.708-5.582l3.458-7.374Z" transform="translate(-32.395 -6.322)" fill="#c8c8c8"/>
  </g>
</svg>
