<svg xmlns="http://www.w3.org/2000/svg" width="80.04" height="24" viewBox="0 0 80.04 24">
  <g id="spotify" transform="translate(0 -2.8)">
    <path id="Path_4853" data-name="Path 4853" d="M12,2.8a12,12,0,1,0,12,12,11.984,11.984,0,0,0-12-12Zm5.52,17.32a.728.728,0,0,1-1.04.24c-2.8-1.72-6.36-2.12-10.56-1.16a.738.738,0,1,1-.32-1.44c4.56-1.04,8.48-.6,11.64,1.32A.773.773,0,0,1,17.52,20.12Zm1.44-3.28a.962.962,0,0,1-1.28.32,15.686,15.686,0,0,0-11.96-1.4.937.937,0,1,1-.52-1.8,17.509,17.509,0,0,1,13.48,1.6.914.914,0,0,1,.28,1.28Zm.16-3.4c-3.88-2.28-10.24-2.52-13.96-1.4a1.128,1.128,0,0,1-1.4-.76,1.146,1.146,0,0,1,.76-1.4C8.76,8.6,15.8,8.84,20.24,11.48a1.116,1.116,0,0,1,.4,1.52,1.1,1.1,0,0,1-1.52.44Zm13.52.44c-2.08-.48-2.44-.84-2.44-1.56,0-.68.64-1.16,1.6-1.16a4.772,4.772,0,0,1,2.84,1.08.147.147,0,0,0,.12.04.14.14,0,0,0,.08-.04l1-1.44c.04-.04.04-.12-.04-.2a6.105,6.105,0,0,0-3.96-1.36c-2.24,0-3.8,1.36-3.8,3.28,0,2.04,1.36,2.8,3.68,3.36,2,.44,2.32.84,2.32,1.52,0,.76-.68,1.24-1.76,1.24a4.827,4.827,0,0,1-3.32-1.36c0-.08-.04-.08-.08-.08a.14.14,0,0,0-.08.04L27.68,18.6a.182.182,0,0,0,0,.2,6.724,6.724,0,0,0,4.56,1.76c2.4,0,3.96-1.32,3.96-3.36,0-1.76-1-2.72-3.56-3.32Zm9.04-2.04a3.2,3.2,0,0,0-2.6,1.24v-.96a.128.128,0,0,0-.12-.12H37.12a.128.128,0,0,0-.12.12V22.68a.128.128,0,0,0,.12.12h1.8a.128.128,0,0,0,.12-.12V19.36a3.338,3.338,0,0,0,2.6,1.2c1.96,0,3.92-1.48,3.92-4.36s-1.96-4.36-3.88-4.36ZM43.4,16.2a2.241,2.241,0,0,1-2.16,2.48A2.323,2.323,0,0,1,39,16.2a2.323,2.323,0,0,1,2.24-2.48A2.264,2.264,0,0,1,43.4,16.2Zm7.2-4.36a4.362,4.362,0,1,0,4.48,4.36,4.422,4.422,0,0,0-4.48-4.36Zm0,6.84a2.361,2.361,0,0,1-2.32-2.48,2.281,2.281,0,0,1,2.32-2.44,2.393,2.393,0,0,1,2.36,2.48A2.358,2.358,0,0,1,50.6,18.68ZM60.4,12H58.36V9.92a.128.128,0,0,0-.12-.12H56.4a.128.128,0,0,0-.12.12V12h-.96a.128.128,0,0,0-.12.12v1.6a.128.128,0,0,0,.12.12h.88V18a2.215,2.215,0,0,0,2.48,2.52,3.067,3.067,0,0,0,1.72-.44c.04-.04.08-.08.08-.12V18.44c0-.04-.04-.08-.08-.12a.075.075,0,0,0-.12,0,2.706,2.706,0,0,1-1.08.28.768.768,0,0,1-.88-.88V13.88h2.04a.128.128,0,0,0,.12-.12v-1.6c.04-.08,0-.16-.08-.16Zm7.12,0v-.24c0-.76.28-1.08.92-1.08a3,3,0,0,1,1.04.2h.12a.147.147,0,0,0,.04-.12V9.2c0-.04-.04-.12-.08-.12A4.7,4.7,0,0,0,68,8.84c-1.72,0-2.6.96-2.6,2.8v.4h-.88a.128.128,0,0,0-.12.12v1.6a.128.128,0,0,0,.12.12h.88v6.36a.128.128,0,0,0,.12.12h1.84a.128.128,0,0,0,.12-.12V13.88H69.2l2.64,6.36c-.32.68-.6.8-1,.8a2.142,2.142,0,0,1-1.04-.28c-.04,0-.08-.04-.12,0a.086.086,0,0,0-.08.08l-.64,1.36c-.04.08,0,.16.04.16a3.83,3.83,0,0,0,2,.52c1.36,0,2.12-.64,2.8-2.36L77,12.2v-.12a.147.147,0,0,0-.12-.04H74.96c-.04,0-.12.04-.12.08l-1.96,5.64-2.16-5.64c-.04-.04-.08-.08-.12-.08L67.52,12Zm-4.16,0H61.52a.128.128,0,0,0-.12.12V20.2a.128.128,0,0,0,.12.12h1.84a.128.128,0,0,0,.12-.12V12.16c.04-.08-.04-.16-.12-.16Zm-.88-3.68A1.32,1.32,0,1,0,63.8,9.64,1.332,1.332,0,0,0,62.48,8.32ZM78.72,14.6a1.332,1.332,0,0,1-1.32-1.32,1.32,1.32,0,1,1,2.64,0A1.332,1.332,0,0,1,78.72,14.6Zm0-2.48a1.146,1.146,0,0,0-1.16,1.2,1.161,1.161,0,0,0,1.16,1.16,1.18,1.18,0,0,0,0-2.36ZM79,13.44l.36.52h-.32l-.32-.48h-.28v.48h-.28V12.6h.6c.32,0,.52.16.52.44.04.2-.08.32-.28.4Zm-.2-.64h-.32v.44h.32c.16,0,.28-.08.28-.2A.264.264,0,0,0,78.8,12.8Z" fill="#c8c8c8"/>
  </g>
</svg>
